<svg xmlns="http://www.w3.org/2000/svg" x=".333" y="1.667" width="26" height="22.757" viewBox="0.25 1.25 19.5 17.068">
  <path stroke="#222" stroke-width="1.2" stroke-linecap="round" stroke-linejoin="round" fill="#fff" d="M1 6.135c0-1.167.001-1.97.083-2.572.078-.582.219-.866.416-1.064.198-.199.482-.338 1.064-.416C3.166 2 3.968 2 5.135 2h.417c1.055 0 1.378.012 1.66.13.281.117.52.336 1.264 1.081l.8.8.09.09c.615.615 1.065 1.065 1.647 1.307.584.242 1.221.242 2.088.24h1.764c1.167 0 1.97.002 2.572.083.581.078.866.22 1.064.416.199.199.338.483.416 1.064C19 7.815 19 8.616 19 9.784v3.648c0 1.168-.001 1.97-.083 2.573-.078.581-.219.866-.416 1.064-.198.198-.483.338-1.064.416-.603.081-1.405.083-2.572.083h-9.73c-1.167 0-1.97-.002-2.572-.083-.582-.078-.866-.22-1.064-.416-.199-.198-.338-.483-.416-1.064C1 15.402 1 14.6 1 13.432V6.135z" />
</svg>